# xmcd
#
# Track frame offsets:
#	150
#	18250
#	35509
#	56413
#	80151
#	104563
#	118196
#	137139
#	156472
#	170308
#	184693
#	197350
#	216796
#	230990
#	246676
#	263183
#	280287
#	297509
#
# Disc length: 4205 seconds
#
# Revision: 1
# Processed by: cddbd v1.4PL0 Copyright (c) Steve Scherf et al.
# Submitted via: audiograbber 1.81.01
#
DISCID=1b106b12
DTITLE=Various Artist - The Kingsnake Collection: Bag O' Blues, Vol. 2
DYEAR=2000
DGENRE=Blues
TTITLE0=Floyd Miles and Friends - Mountain To Climb
TTITLE1=Ace Moreland - Hide that Wine
TTITLE2=Eric Culberson - No Rules to the Game
TTITLE3=SmokeHouse - 95 South: The High Sheriff From Hell
TTITLE4=Roy Roberts - The Deeper My Shade of Blue
TTITLE5=Mark Hudson - XPress Train
TTITLE6=Young Neal and the Vipers - Why Did the Bottle Choose Me?
TTITLE7=Little Mike and the Tornadoes - Forgive Me
TTITLE8=Sonny Rhodes - Born to Be Blue
TTITLE9=Junior Markham - House of Blues
TTITLE10=Troy Turner - Whole Lotta Ash
TTITLE11=Billy Rigsby - Seems Like a Good Idea to Me
TTITLE12=Tony Coleman - The Little Drummer Boy
TTITLE13=Bill Wharton and the Ingredients - Sugarbone
TTITLE14=Warren King - Hurricane!
TTITLE15=Dr. Hector and the Grove Injectors - King Snake Shake
TTITLE16=Charles Atkins -Sweet Voice
TTITLE17=Lou Pride - Might Give Out
EXTD=
EXTT0=
EXTT1=
EXTT2=
EXTT3=
EXTT4=
EXTT5=
EXTT6=
EXTT7=
EXTT8=
EXTT9=
EXTT10=
EXTT11=
EXTT12=
EXTT13=
EXTT14=
EXTT15=
EXTT16=
EXTT17=
PLAYORDER=
